# Blender v2.80 (sub 75) OBJ File: 'arbol_seco.blend'
# www.blender.org
mtllib tree.mtl
o arbol.seco_Cube
v 0.129751 0.000000 -0.102228
v 0.177308 0.000000 0.094434
v -0.145032 0.000000 0.041521
v -0.091050 0.000000 -0.060600
v 0.115453 0.704566 -0.131592
v 0.143499 0.704566 0.027758
v -0.033692 0.764131 -0.034066
v 0.012869 0.764131 -0.124953
v -0.027442 1.228296 -0.118395
v -0.076705 1.231995 0.000571
v 0.097349 1.263870 0.033347
v 0.094659 1.384506 -0.084438
v 0.015721 1.539589 -0.064932
v 0.001173 1.447102 0.052628
v -0.110652 1.455433 -0.092834
v 0.152250 1.876818 0.153374
v 0.147570 1.884602 0.073037
v 0.250992 1.841175 0.048859
v 0.210228 1.710304 0.138000
v -0.218322 1.814711 0.003558
v -0.202709 1.837664 0.111295
v -0.129153 1.882148 0.104283
v -0.131349 1.865221 0.021144
v -0.031742 1.822941 -0.202468
v 0.012088 1.841217 -0.148993
v 0.060797 1.792971 -0.198754
v 0.009576 1.749381 -0.220525
v 0.022777 2.112369 -0.290678
v 0.090092 2.131427 -0.287621
v 0.068604 2.238485 -0.253109
v 0.002130 2.192937 -0.264511
v 0.209773 1.936461 0.113350
v 0.218782 1.836559 0.192566
v 0.294271 2.142063 0.225317
v 0.294271 2.214421 0.170019
v 0.348522 2.188033 0.155764
v 0.348522 2.115675 0.211062
v 0.176141 2.217298 0.190080
v 0.167862 2.248855 0.139048
v 0.124769 2.263239 0.140395
v 0.135601 2.221952 0.207161
v -0.189075 1.979959 0.111141
v -0.245672 1.957402 0.106199
v -0.220001 2.104652 0.183560
v -0.171028 2.123399 0.162112
v -0.127442 1.930701 0.175686
v -0.187579 2.013129 0.205961
v -0.282960 2.283932 0.017196
v -0.298179 2.277156 0.087228
v -0.251621 2.338850 0.099811
v -0.236402 2.345626 0.029779
v 0.006151 2.348793 -0.407917
v 0.039425 2.367545 -0.392242
v 0.054214 2.340539 -0.427592
v 0.019622 2.328900 -0.434482
v 0.371757 2.424121 0.361937
v 0.371757 2.472341 0.325087
v 0.332772 2.475036 0.326542
v 0.332772 2.426816 0.363393
v -0.161961 2.187487 0.277175
v -0.130731 2.215263 0.261126
v -0.153214 2.254826 0.249382
v -0.182139 2.234546 0.263256
v -0.362854 2.551283 0.024127
v -0.372444 2.547013 0.068256
v -0.401781 2.508139 0.060327
v -0.392192 2.512409 0.016199
v 0.178409 2.564765 0.251254
v 0.172032 2.589072 0.211948
v 0.199838 2.571314 0.226176
v -0.516267 2.650695 -0.076449
v -0.524396 2.647075 -0.039043
v -0.499528 2.680027 -0.032322
v -0.491398 2.683647 -0.069729
v -0.146167 2.271560 0.389883
v -0.124213 2.251307 0.388020
v -0.144363 2.231019 0.390479
v 0.435865 2.796154 0.393678
v 0.455357 2.778868 0.346819
v 0.474850 2.792711 0.394148
v -0.080860 2.465617 -0.586438
v -0.046269 2.477257 -0.579548
v -0.077694 2.494886 -0.552036
v 0.044537 0.734349 0.073416
v 0.016138 0.000000 0.178028
v 0.019613 1.247933 0.074632
vt 0.355811 0.028201
vt 0.305856 0.298448
vt 0.241112 0.290392
vt 0.279580 0.009955
vt 0.130776 0.000000
vt 0.138828 0.316872
vt 0.095669 0.320256
vt 0.087536 0.007701
vt 0.052607 0.297553
vt 0.000000 0.023393
vt 0.155878 0.512932
vt 0.107003 0.511494
vt 0.055166 0.574736
vt 0.282631 0.566358
vt 0.237007 0.517978
vt 0.432776 0.091978
vt 0.519362 0.028566
vt 0.468095 0.277945
vt 0.397406 0.339692
vt 0.355811 0.115945
vt 0.355811 0.327427
vt 0.582709 0.087504
vt 0.519844 0.346540
vt 0.631931 0.104720
vt 0.688989 0.081103
vt 0.698461 0.236368
vt 0.660261 0.250236
vt 0.792852 0.081860
vt 0.844025 0.116971
vt 0.804863 0.256881
vt 0.772667 0.258048
vt 0.960691 0.091119
vt 1.000000 0.132175
vt 0.967358 0.248021
vt 0.939007 0.241564
vt 0.915194 0.012726
vt 0.916702 0.216304
vt 0.844025 0.130633
vt 0.867581 0.071318
vt 0.895239 0.233033
vt 0.865881 0.248797
vt 0.926260 0.369523
vt 0.899496 0.376771
vt 0.870546 0.411583
vt 0.948477 0.394931
vt 0.973679 0.410120
vt 0.441135 0.345985
vt 0.457092 0.494605
vt 0.430471 0.501501
vt 0.395779 0.381497
vt 0.395297 0.527112
vt 0.548212 0.403498
vt 0.507925 0.532888
vt 0.487918 0.519465
vt 0.290647 0.574736
vt 0.320330 0.621734
vt 0.299580 0.756188
vt 0.278822 0.743063
vt 0.259555 0.590928
vt 0.257080 0.745490
vt 0.355811 0.606922
vt 0.315490 0.765617
vt 0.222929 0.588002
vt 0.222929 0.759995
vt 0.760023 0.301877
vt 0.740651 0.247917
vt 0.735628 0.296974
vt 0.109943 0.613052
vt 0.138017 0.574736
vt 0.139737 0.646917
vt 0.117340 0.671812
vt 0.199846 0.622496
vt 0.222929 0.611728
vt 0.216726 0.681585
vt 0.194021 0.683047
vt 0.169341 0.587805
vt 0.161775 0.617826
vt 0.724825 0.434978
vt 0.693437 0.435891
vt 0.749459 0.455328
vt 0.669038 0.454634
vt 0.778681 0.461627
vt 0.953264 0.476247
vt 0.936767 0.476967
vt 0.921766 0.476601
vt 0.907064 0.474943
vt 0.889562 0.476881
vt 0.455696 0.638121
vt 0.445275 0.625159
vt 0.466642 0.641781
vt 0.433055 0.624780
vt 0.422438 0.637522
vt 0.164796 0.733249
vt 0.146691 0.728010
vt 0.180860 0.740554
vt 0.194924 0.743531
vt 0.124741 0.736600
vt 0.752138 0.551365
vt 0.737379 0.544581
vt 0.702259 0.542518
vt 0.682939 0.550619
vt 0.719481 0.538176
vt 0.256904 0.865434
vt 0.245131 0.886486
vt 0.283948 0.887071
vt 0.269817 0.878361
vt 0.715033 0.599660
vt 0.707291 0.602413
vt 0.724451 0.617658
vt 0.700352 0.617833
vt 0.736147 0.625513
vt 0.147179 0.782222
vt 0.132887 0.788328
vt 0.166829 0.788328
vt 0.158228 0.778634
vt 0.425583 0.664931
vt 0.425598 0.661846
vt 0.420069 0.685354
vt 0.923791 0.555605
vt 0.911729 0.563606
vt 0.894688 0.567070
vt 0.937996 0.567070
vt 0.743769 0.000000
vt 0.209728 0.000000
vt 0.195346 0.301389
vt 0.202457 0.514183
vt 0.793621 0.000000
vt 0.482560 0.000000
vt 0.961476 0.000000
vt 0.631931 0.165755
vt 0.576962 0.366707
vn 0.5806 -0.0226 -0.8139
vn 0.6154 0.0124 -0.7881
vn 0.8953 0.0682 0.4403
vn 0.8892 0.0814 0.4502
vn -0.9738 0.1449 0.1755
vn -0.9913 0.0198 0.1302
vn -0.4924 0.0136 -0.8702
vn -0.6204 0.0231 -0.7839
vn -0.9359 -0.1821 0.3016
vn -0.4627 -0.1076 -0.8799
vn 0.8001 -0.1037 -0.5907
vn 0.8422 -0.0073 0.5390
vn -0.1994 0.0019 0.9799
vn 0.6016 -0.3753 0.7052
vn -0.7555 -0.0378 0.6540
vn 0.3177 0.9480 -0.0192
vn -0.6493 0.4161 -0.6366
vn 0.6565 0.1035 -0.7472
vn -0.8244 -0.0745 -0.5610
vn -0.7514 -0.0629 -0.6568
vn 0.7338 0.3437 -0.5860
vn 0.8614 0.0785 0.5018
vn 0.1145 0.2648 0.9575
vn -0.9914 0.1306 0.0009
vn -0.0875 -0.1883 -0.9782
vn 0.9694 -0.0524 -0.2399
vn -0.3269 -0.2828 -0.9018
vn 0.9467 -0.2025 -0.2505
vn 0.3430 0.5651 0.7503
vn -0.9281 0.1681 0.3320
vn -0.0409 -0.2086 0.9771
vn 0.8295 -0.3315 0.4494
vn -0.5689 -0.1359 0.8111
vn 0.0485 0.4964 -0.8667
vn -0.7257 0.4106 -0.5520
vn 0.6213 0.2182 -0.7526
vn 0.7296 0.1194 -0.6733
vn 0.8033 -0.0370 0.5944
vn -0.6345 -0.0959 0.7669
vn -0.6827 0.1946 -0.7043
vn 0.8405 0.5183 -0.1578
vn -0.5712 -0.3743 0.7304
vn -0.9518 -0.1070 0.2872
vn -0.3388 -0.3426 0.8762
vn -0.9560 0.2538 -0.1472
vn 0.2493 0.4647 -0.8496
vn 0.8561 -0.3478 0.3822
vn -0.7819 -0.1798 0.5969
vn -0.4953 -0.1460 -0.8563
vn 0.4974 0.2521 0.8300
vn 0.8097 0.3247 -0.4888
vn 0.3292 0.7636 0.5554
vn -0.9046 0.1285 0.4064
vn -0.4107 -0.6423 -0.6471
vn 0.8747 -0.0110 -0.4845
vn 0.6485 0.0667 -0.7583
vn 0.6751 -0.2719 0.6857
vn -0.7205 0.3772 -0.5818
vn -0.6725 -0.1016 0.7331
vn 0.9981 0.0055 -0.0611
vn -0.3204 -0.4863 0.8129
vn 0.1678 0.8437 -0.5099
vn -0.9098 0.4072 -0.0794
vn 0.7798 0.4702 -0.4132
vn 0.2582 0.5206 0.8138
vn -0.3339 -0.4448 -0.8310
vn -0.7664 -0.2828 0.5767
vn -0.2786 0.2675 0.9224
vn -0.4843 0.7690 -0.4172
vn 0.8041 0.5942 0.0160
vn -0.9674 -0.0561 0.2470
vn -0.5577 -0.0706 -0.8270
vn -0.2319 0.8517 0.4699
vn 0.1208 0.7816 -0.6120
vn -0.1773 -0.6928 0.6989
vn -0.1207 0.6681 0.7342
vn 0.8694 0.0211 0.4936
vn 0.7556 0.4974 0.4262
vn -0.5072 0.6388 0.5785
vn 0.1510 0.5846 -0.7971
vn -0.5726 -0.2259 -0.7880
vn 0.6159 0.3213 -0.7193
vn -0.5457 0.8373 -0.0320
vn -0.1590 0.1580 0.9745
vn -0.1527 0.0718 0.9856
vn -0.0310 -0.0104 0.9995
usemtl arbol.seco
s 1
f 1/1/1 5/2/2 6/3/3 2/4/4
f 3/5/5 7/6/6 8/7/7 4/8/8
f 5/9/2 1/10/1 4/8/8 8/7/7
f 8/7/7 7/6/6 10/11/9 9/12/10
f 5/9/2 8/7/7 9/12/10 12/13/11
f 6/3/3 5/2/2 12/14/11 11/15/12
f 14/16/13 11/17/12 19/18/14 16/19/15
f 13/20/16 14/16/13 16/19/15 17/21/17
f 11/17/12 12/22/11 18/23/18 19/18/14
f 13/24/16 15/25/19 20/26/20 23/27/21
f 14/28/13 13/29/16 23/30/21 22/31/22
f 15/32/19 13/33/16 25/34/23 24/35/24
f 9/36/10 15/32/19 24/35/24 27/37/25
f 13/38/16 12/39/11 26/40/26 25/41/23
f 12/39/11 9/36/10 27/37/25 26/40/26
f 26/40/26 27/37/25 28/42/27 29/43/28
f 25/41/23 26/40/26 29/43/28 30/44/29
f 27/37/25 24/35/24 31/45/30 28/42/27
f 24/35/24 25/34/23 30/46/29 31/45/30
f 16/19/15 19/18/14 33/47/31
f 33/47/31 19/18/14 37/48/32 34/49/33
f 32/50/34 33/47/31 34/49/33 35/51/35
f 18/23/18 32/52/34 35/53/35 36/54/36
f 19/18/14 18/23/18 36/54/36 37/48/32
f 33/55/31 32/56/34 39/57/37 38/58/38
f 16/59/15 33/55/31 38/58/38 41/60/39
f 32/56/34 17/61/17 40/62/40 39/57/37
f 17/63/17 16/59/15 41/60/39 40/64/40
f 22/31/22 23/30/21 42/65/41
f 20/26/20 21/66/42 43/67/43
f 43/68/43 21/69/42 47/70/44 44/71/45
f 42/72/41 43/73/43 44/74/45 45/75/46
f 22/76/22 42/72/41 45/75/46 46/77/47
f 21/69/42 22/76/22 46/77/47 47/70/44
f 20/26/20 43/67/43 49/78/48 48/79/49
f 43/67/43 42/65/41 50/80/50 49/78/48
f 23/27/21 20/26/20 48/79/49 51/81/51
f 42/65/41 23/30/21 51/82/51 50/80/50
f 31/45/30 30/46/29 53/83/52 52/84/53
f 28/42/27 31/45/30 52/84/53 55/85/54
f 30/44/29 29/43/28 54/86/55 53/87/52
f 29/43/28 28/42/27 55/85/54 54/86/55
f 37/48/32 36/54/36 57/88/56 56/89/57
f 36/54/36 35/53/35 58/90/58 57/88/56
f 35/51/35 34/49/33 59/91/59 58/92/58
f 34/49/33 37/48/32 56/89/57 59/91/59
f 47/70/44 46/77/47 61/93/60 60/94/61
f 46/77/47 45/75/46 62/95/62 61/93/60
f 45/75/46 44/74/45 63/96/63 62/95/62
f 44/71/45 47/70/44 60/94/61 63/97/63
f 50/80/50 51/82/51 64/98/64 65/99/65
f 51/81/51 48/79/49 67/100/66 64/101/64
f 49/78/48 50/80/50 65/99/65 66/102/67
f 48/79/49 49/78/48 66/102/67 67/100/66
f 40/64/40 41/60/39 68/103/68 69/104/69
f 39/57/37 40/62/40 69/105/69 70/106/70
f 41/60/39 38/58/38 70/106/70 68/103/68
f 38/58/38 39/57/37 70/106/70
f 69/104/69 68/103/68 70/106/70
f 67/100/66 66/102/67 72/107/71 71/108/72
f 66/102/67 65/99/65 73/109/73 72/107/71
f 64/101/64 67/100/66 71/108/72 74/110/74
f 65/99/65 64/98/64 74/111/74 73/109/73
f 74/110/74 71/108/72 72/107/71 73/109/73
f 63/97/63 60/94/61 77/112/75 75/113/76
f 62/95/62 63/96/63 75/114/76
f 61/93/60 62/95/62 75/114/76 76/115/77
f 60/94/61 61/93/60 76/115/77 77/112/75
f 77/112/75 76/115/77 75/114/76
f 59/91/59 56/89/57 80/116/78 78/117/79
f 58/92/58 59/91/59 78/117/79 79/118/80
f 57/88/56 58/90/58 79/118/80
f 56/89/57 57/88/56 79/118/80 80/116/78
f 80/116/78 79/118/80 78/117/79
f 54/86/55 55/85/54 81/119/81 82/120/82
f 53/87/52 54/86/55 82/120/82 83/121/83
f 55/85/54 52/84/53 83/122/83 81/119/81
f 52/84/53 53/83/52 83/122/83
f 82/120/82 81/119/81 83/122/83
f 10/123/9 22/31/22 21/66/42
f 7/6/6 3/5/5 85/124/84 84/125/85
f 6/3/3 84/125/85 85/124/84 2/4/4
f 6/3/3 11/15/12 86/126/86 84/125/85
f 7/6/6 84/125/85 86/126/86 10/11/9
f 10/123/9 86/127/86 14/28/13 22/31/22
f 11/17/12 14/16/13 86/128/86
f 10/123/9 21/66/42 20/26/20
f 9/36/10 10/129/9 15/32/19
f 10/123/9 20/26/20 15/25/19
f 18/23/18 12/22/11 13/130/16
f 17/131/17 18/23/18 13/130/16
f 18/23/18 17/131/17 32/52/34
l 1 2
l 1 4
l 1 5
l 2 6
l 3 4
l 3 7
l 4 8
l 5 6
l 5 8
l 7 8
l 7 10
l 9 10
l 8 9
l 6 11
l 9 12
l 5 12
l 11 12
l 12 13
l 13 14
l 11 14
l 9 15
l 13 15
l 11 19
l 16 19
l 14 16
l 16 17
l 13 17
l 12 18
l 18 19
l 20 21
l 15 20
l 14 22
l 21 22
l 20 23
l 13 23
l 22 23
l 13 25
l 24 25
l 15 24
l 24 27
l 9 27
l 12 26
l 25 26
l 26 27
l 27 28
l 28 29
l 26 29
l 29 30
l 25 30
l 24 31
l 28 31
l 30 31
l 17 32
l 16 33
l 32 33
l 34 37
l 33 34
l 34 35
l 32 35
l 35 36
l 36 37
l 32 39
l 38 39
l 33 38
l 38 41
l 16 41
l 17 40
l 39 40
l 40 41
l 19 37
l 19 33
l 18 36
l 18 32
l 22 42
l 42 43
l 21 43
l 21 47
l 44 47
l 43 44
l 44 45
l 42 45
l 45 46
l 22 46
l 46 47
l 43 49
l 48 49
l 42 50
l 49 50
l 48 51
l 50 51
l 30 53
l 52 53
l 31 52
l 52 55
l 28 55
l 29 54
l 53 54
l 54 55
l 36 57
l 56 57
l 37 56
l 35 58
l 57 58
l 34 59
l 58 59
l 56 59
l 46 61
l 60 61
l 47 60
l 45 62
l 61 62
l 44 63
l 62 63
l 60 63
l 51 64
l 64 65
l 50 65
l 48 67
l 64 67
l 65 66
l 49 66
l 66 67
l 41 68
l 68 69
l 40 69
l 69 70
l 39 70
l 66 72
l 71 72
l 67 71
l 65 73
l 72 73
l 71 74
l 64 74
l 73 74
l 60 77
l 75 77
l 63 75
l 61 76
l 76 77
l 75 76
l 62 75
l 56 80
l 78 80
l 59 78
l 78 79
l 58 79
l 79 80
l 57 79
l 55 81
l 81 82
l 54 82
l 82 83
l 53 83
l 81 83
l 52 83
l 68 70
l 38 70
l 6 84
l 7 84
l 2 85
l 3 85
l 84 85
l 10 86
l 11 86
l 84 86
l 10 22
l 14 86
l 23 51
l 23 42
l 20 48
l 20 43
l 10 21
l 10 20
l 10 15
l 13 18
l 17 18
